<svg xmlns="http://www.w3.org/2000/svg" viewBox="0 0 1600 900" preserveAspectRatio="xMidYMid slice">
<defs>
  <radialGradient id="bg" cx="75%" cy="45%" r="80%"><stop offset="0" stop-color="#12351f"/><stop offset=".45" stop-color="#06170d"/><stop offset="1" stop-color="#010504"/></radialGradient>
  <radialGradient id="board" cx="50%" cy="50%"><stop offset="0" stop-color="#263b2c"/><stop offset=".72" stop-color="#111713"/><stop offset="1" stop-color="#050806"/></radialGradient>
  <radialGradient id="cream"><stop offset="0" stop-color="#e2d6b9"/><stop offset="1" stop-color="#b7aa8c"/></radialGradient>
  <filter id="glow"><feGaussianBlur stdDeviation="18"/></filter>
  <filter id="shadow"><feDropShadow dx="0" dy="20" stdDeviation="18" flood-opacity=".65"/></filter>
  <linearGradient id="dart" x1="0" y1="0" x2="1" y2="1"><stop stop-color="#f5f5f5"/><stop offset=".45" stop-color="#737b78"/><stop offset="1" stop-color="#161a18"/></linearGradient>
  <linearGradient id="shaft"><stop stop-color="#c7ccc9"/><stop offset=".5" stop-color="#343b38"/><stop offset="1" stop-color="#080b0a"/></linearGradient>
</defs>
<rect width="1600" height="900" fill="url(#bg)"/>
<g opacity=".28" filter="url(#glow)" fill="#38e56e"><ellipse cx="1220" cy="170" rx="310" ry="100"/><ellipse cx="1470" cy="700" rx="250" ry="130"/></g>
<g opacity=".12" stroke="#71ff99" fill="none"><path d="M80 160 C350 40 430 300 690 150 S1080 40 1420 160"/><path d="M40 770 C300 600 510 850 780 700 S1190 570 1570 720"/></g>
<!-- dartboard -->
<g transform="translate(1160 470) rotate(-9)" filter="url(#shadow)">
  <circle r="395" fill="#020303" stroke="#354039" stroke-width="18"/>
  <circle r="370" fill="url(#board)" stroke="#87918a" stroke-width="5"/>
  <circle r="352" fill="none" stroke="#050706" stroke-width="20"/>
  <g stroke="#161c18" stroke-width="7">
    <path d="M0 0L0-350M0 0L103-335M0 0L196-290M0 0L278-210M0 0L333-103M0 0L350 0M0 0L333 103M0 0L278 210M0 0L196 290M0 0L103 335M0 0L0 350M0 0L-103 335M0 0L-196 290M0 0L-278 210M0 0L-333 103M0 0L-350 0M0 0L-333-103M0 0L-278-210M0 0L-196-290M0 0L-103-335"/>
  </g>
  <g fill="none" stroke-width="22">
    <circle r="285" stroke="#a61d22"/><circle r="285" stroke="#f0d9bd" stroke-dasharray="90 195"/>
    <circle r="177" stroke="#17834a"/><circle r="177" stroke="#d2c3a6" stroke-dasharray="75 110"/>
  </g>
  <g fill="url(#cream)" opacity=".95">
    <path d="M0-346A346 346 0 0 1 107-329L0 0Z"/><path d="M196-286A346 346 0 0 1 278-208L0 0Z"/><path d="M333-103A346 346 0 0 1 346 0L0 0Z"/>
    <path d="M-107 329A346 346 0 0 1-196 286L0 0Z"/><path d="M-278 208A346 346 0 0 1-333 103L0 0Z"/>
  </g>
  <circle r="55" fill="#0c6b40" stroke="#111" stroke-width="10"/><circle r="22" fill="#a51d24" stroke="#d3c19d" stroke-width="7"/>
  <g fill="#eee" font-family="Arial" font-size="42" font-weight="700" text-anchor="middle"><text y="-310">20</text><text x="178" y="-250" transform="rotate(36 178 -250)">18</text><text x="322" y="-55" transform="rotate(72 322 -55)">4</text></g>
  <!-- three darts clustered near treble 20 -->
  <g>
    <g transform="translate(-40,-520) rotate(-4)"><path d="M0 0L35 205" stroke="url(#shaft)" stroke-width="7"/><path d="M35 205L42 250" stroke="url(#dart)" stroke-width="8"/><path d="M-26-8L0 0L-7 44L-38 25Z" fill="#0a1710" stroke="#55e67f" stroke-width="3"/></g>
    <g transform="translate(20,-535) rotate(2)"><path d="M0 0L-4 215" stroke="url(#shaft)" stroke-width="7"/><path d="M-4 215L-2 260" stroke="url(#dart)" stroke-width="8"/><path d="M-30 2L0 0L12 42L-22 50Z" fill="#07140d" stroke="#55e67f" stroke-width="3"/></g>
    <g transform="translate(82,-500) rotate(8)"><path d="M0 0L-48 192" stroke="url(#shaft)" stroke-width="7"/><path d="M-48 192L-59 236" stroke="url(#dart)" stroke-width="8"/><path d="M-25-8L4 3L-3 46L-35 35Z" fill="#07140d" stroke="#55e67f" stroke-width="3"/></g>
  </g>
</g>
<rect width="1600" height="900" fill="url(#bg)" opacity=".08"/>
</svg>
